<svg version="1.1" viewBox="0.0 0.0 839.7401574803149 274.6955380577428" fill="none" stroke="none" stroke-linecap="square" stroke-miterlimit="10" xmlns:xlink="http://www.w3.org/1999/xlink" xmlns="http://www.w3.org/2000/svg"><clipPath id="p.0"><path d="m0 0l839.7402 0l0 274.69553l-839.7402 0l0 -274.69553z" clip-rule="nonzero"/></clipPath><g clip-path="url(#p.0)"><path fill="#000000" fill-opacity="0.0" d="m0 0l839.7402 0l0 274.69553l-839.7402 0z" fill-rule="evenodd"/><path fill="#000000" fill-opacity="0.0" d="m-246.77582 27.342983l987.1811 0l0 278.89764l-987.1811 0z" fill-rule="evenodd"/><path fill="#0061ff" d="m95.9097 207.30354q-6.578125 0 -12.15625 -3.28125q-5.5625 -3.296875 -8.765625 -8.78125q-3.203125 -5.484375 -3.203125 -12.234375l0 -10.28125l24.296875 0l0 9.109375q0 0.5 0.25 0.75q0.25 0.25 0.59375 0.25l70.6875 0q0.328125 0 0.671875 -0.25q0.34375 -0.25 0.34375 -0.75l0 -22.109375q0 -0.328125 -0.34375 -0.578125q-0.34375 -0.265625 -0.671875 -0.265625l-71.703125 0q-6.578125 0 -12.15625 -3.28125q-5.5625 -3.296875 -8.765625 -8.859375q-3.203125 -5.5625 -3.203125 -12.15625l0 -24.453125q0 -6.75 3.203125 -12.234375q3.203125 -5.484375 8.765625 -8.765625q5.578125 -3.296875 12.15625 -3.296875l73.046875 0q6.578125 0 12.0625 3.296875q5.484375 3.28125 8.859375 8.765625q3.375 5.484375 3.375 12.234375l0 10.296875l-24.625 0l0 -9.109375q0 -0.515625 -0.34375 -0.765625q-0.34375 -0.25 -0.671875 -0.25l-70.6875 0q-0.34375 0 -0.59375 0.25q-0.25 0.25 -0.25 0.765625l0 22.09375q0 0.34375 0.25 0.59375q0.25 0.25 0.59375 0.25l72.03125 0q6.578125 0 12.0625 3.296875q5.484375 3.28125 8.859375 8.859375q3.375 5.5625 3.375 12.140625l0 24.453125q0 6.75 -3.375 12.234375q-3.375 5.484375 -8.859375 8.78125q-5.484375 3.28125 -12.0625 3.28125l-73.046875 0zm115.392426 38.796875l0 0l0 -136.64062l75.40625 0q6.578125 0 11.96875 3.296875q5.40625 3.28125 8.609375 8.6875q3.21875 5.390625 3.21875 11.796875l0 50.28125q0 6.40625 -3.21875 11.8125q-3.203125 5.390625 -8.609375 8.6875q-5.390625 3.28125 -11.96875 3.28125l-51.453125 0l0 38.796875l-23.953125 0zm24.96875 -62.75l49.265625 0q0.5 0 0.75 -0.328125q0.25 -0.34375 0.25 -0.6875l0 -47.90625q0 -0.34375 -0.25 -0.671875q-0.25 -0.34375 -0.75 -0.34375l-49.265625 0q-0.34375 0 -0.6875 0.34375q-0.328125 0.328125 -0.328125 0.671875l0 47.90625q0 0.34375 0.328125 0.6875q0.34375 0.328125 0.6875 0.328125zm85.70636 23.953125l0 0l0 -7.25l34.75 -42.515625l-34.75 -40.828125l0 -7.25l25.296875 0l25.140625 29.6875l24.96875 -29.6875l25.296875 0l0 7.25l-34.75 40.828125l34.75 42.515625l0 7.25l-25.125 0l-25.140625 -30.875l-25.140625 30.875l-25.296875 0z" fill-rule="nonzero"/><path fill="#000000" fill-opacity="0.0" d="m405.19812 93.55029l448.72443 0l0 132.12599l-448.72443 0z" fill-rule="evenodd"/><path fill="#dc1d1d" d="m448.5581 149.96207l0 -12.484375l54.15625 0l0 12.484375l-20.171875 0l0 53.78125l-13.828125 0l0 -53.78125l-20.15625 0zm71.43811 53.78125q-15.5624695 0 -15.5624695 -15.265625q0 -15.265625 15.5624695 -15.265625l13.25 0l0 -5.578125q0 -3.078125 -3.0625 -3.078125l-20.359344 0l0 -7.203125l5.7499695 -4.3125l15.375 0q15.546875 0 15.546875 15.5625l0 35.140625l-26.5 0zm-2.296875 -14.59375q0 3.0625 3.0625 3.0625l12.484375 0l0 -8.828125l-12.484375 0q-3.0625 0 -3.0625 3.078125l0 2.6875zm41.47345 -0.96875l0 -19.578125q0 -15.5625 15.5625 -15.5625l17.859375 0l5.765625 4.3125l0 7.203125l-22.859375 0q-3.078125 0 -3.078125 3.078125l0 21.515625q0 3.0625 3.078125 3.0625l22.859375 0l0 7.203125l-5.765625 4.328125l-17.859375 0q-15.5625 0 -15.5625 -15.5625zm50.134766 0l0 -35.140625l13.25 0l0 36.109375q0 3.0625 3.078125 3.0625l14.015625 0l0 -39.171875l13.25 0l0 50.703125l-28.03125 0q-15.5625 0 -15.5625 -15.5625zm57.04254 -2.875l0 -52.625l13.25 0l0 53.96875q0 5.953125 6.140625 6.625l0 11.421875q-19.390625 0 -19.390625 -19.390625zm43.019653 18.4375q-15.5625 0 -15.5625 -15.265625q0 -15.265625 15.5625 -15.265625l13.25 0l0 -5.578125q0 -3.078125 -3.0625 -3.078125l-20.359375 0l0 -7.203125l5.75 -4.3125l15.375 0q15.546875 0 15.546875 15.5625l0 35.140625l-26.5 0zm-2.296875 -14.59375q0 3.0625 3.0625 3.0625l12.484375 0l0 -8.828125l-12.484375 0q-3.0625 0 -3.0625 3.078125l0 2.6875zm41.864014 14.59375l0 -44.171875q3.546875 -6.53125 13.640625 -6.53125l10.359375 0l5.765625 4.3125l0 7.203125l-12.578125 0q-2.875 0 -3.9375 1.453125l0 37.734375l-13.25 0z" fill-rule="nonzero"/><path fill="#666666" d="m550.791 116.494415l8.106506 0c0.4545288 0 0.8904419 0.18057251 1.2119141 0.50198364c0.32141113 0.32141876 0.5019531 0.75735474 0.5019531 1.2118988l0 6.0913925c0 5.340576E-5 -6.1035156E-5 9.918213E-5 -1.2207031E-4 9.918213E-5l-11.53418 -9.918213E-5c-6.1035156E-5 0 -6.1035156E-5 -3.8146973E-5 -6.1035156E-5 -9.1552734E-5l6.1035156E-5 -6.091301c0 -0.94654846 0.767334 -1.7138824 1.7139282 -1.7138824z" fill-rule="evenodd"/><path fill="#0061ff" d="m568.131 98.22914l7.689453 0c0.50982666 0 0.99884033 0.20253754 1.359375 0.5630646c0.36047363 0.3605194 0.5630493 0.84949493 0.5630493 1.3593521l0 24.137642c0 5.340576E-5 -6.1035156E-5 9.918213E-5 -1.2207031E-4 9.918213E-5l-11.53418 -9.918213E-5c-6.1035156E-5 0 -6.1035156E-5 -3.8146973E-5 -6.1035156E-5 -9.1552734E-5l6.1035156E-5 -24.13755c0 -1.0617218 0.8607178 -1.9224167 1.9224243 -1.9224167z" fill-rule="evenodd"/><path fill="#666666" d="m584.8903 116.483795l8.439026 0c0.41046143 0 0.8041382 0.16305542 1.0943604 0.45329285c0.29022217 0.29023743 0.4533081 0.68388367 0.4533081 1.0943375l0 6.2576523c0 4.5776367E-5 -6.1035156E-5 9.1552734E-5 -1.2207031E-4 9.1552734E-5l-11.53418 -9.1552734E-5c-6.1035156E-5 0 -1.2207031E-4 -4.5776367E-5 -1.2207031E-4 -9.918213E-5l1.2207031E-4 -6.257553c0 -0.8547287 0.6928711 -1.5476303 1.5476074 -1.5476303z" fill-rule="evenodd"/><path fill="#666666" d="m601.98553 110.608864l8.511841 0c0.40081787 0 0.7852173 0.15921783 1.0686035 0.44262695c0.28344727 0.28340912 0.44262695 0.6677933 0.44262695 1.0685959l0 12.187836c0 4.5776367E-5 0 9.1552734E-5 -6.1035156E-5 9.1552734E-5l-11.53418 -9.1552734E-5c-6.1035156E-5 0 -1.2207031E-4 -4.5776367E-5 -1.2207031E-4 -9.918213E-5l1.2207031E-4 -12.1877365c0 -0.83462524 0.6765747 -1.5112228 1.5111694 -1.5112228z" fill-rule="evenodd"/><path fill="#0061ff" d="m619.53 29.814358l7.689453 0c0.50982666 0 0.99884033 0.20253944 1.359375 0.5630646c0.36047363 0.36052322 0.5630493 0.84949875 0.5630493 1.3593559l0 92.537346c0 5.340576E-5 -6.1035156E-5 9.1552734E-5 -1.2207031E-4 9.1552734E-5l-11.53418 -9.1552734E-5c-6.1035156E-5 0 -1.2207031E-4 -4.5776367E-5 -1.2207031E-4 -9.918213E-5l1.2207031E-4 -92.53725c0 -1.0617237 0.8607178 -1.9224205 1.9224243 -1.9224205z" fill-rule="evenodd"/><path fill="#0061ff" d="m636.664 72.67517l7.689453 0c0.50982666 0 0.99884033 0.20254517 1.359314 0.5630646c0.36053467 0.36052704 0.56311035 0.84950256 0.56311035 1.3593597l0 49.687973c0 5.340576E-5 -6.1035156E-5 9.1552734E-5 -1.2207031E-4 9.1552734E-5l-11.53418 -9.1552734E-5c-6.1035156E-5 0 -1.2207031E-4 -4.5776367E-5 -1.2207031E-4 -9.918213E-5l1.2207031E-4 -49.687874c0 -1.0617218 0.8607178 -1.9224243 1.9224243 -1.9224243z" fill-rule="evenodd"/><path fill="#0061ff" d="m653.6324 113.74639l8.019165 0c0.46618652 0 0.913208 0.18517303 1.2427979 0.51477814c0.32958984 0.3296051 0.5147705 0.77664185 0.5147705 1.242775l0 8.787537c0 5.340576E-5 -6.1035156E-5 9.1552734E-5 -6.1035156E-5 9.1552734E-5l-11.534241 -9.1552734E-5c0 0 -6.1035156E-5 -4.5776367E-5 -6.1035156E-5 -9.918213E-5l6.1035156E-5 -8.787437c0 -0.9706726 0.78692627 -1.7575531 1.7575684 -1.7575531z" fill-rule="evenodd"/><path fill="#666666" d="m670.8718 105.15001l7.805481 0c0.4944458 0 0.96868896 0.19642639 1.3183594 0.5460663c0.34960938 0.34964752 0.5460205 0.8238678 0.5460205 1.3183365l0 17.282417c0 5.340576E-5 0 9.1552734E-5 -6.1035156E-5 9.1552734E-5l-11.53418 -9.1552734E-5c-6.1035156E-5 0 -1.2207031E-4 -4.5776367E-5 -1.2207031E-4 -9.918213E-5l1.2207031E-4 -17.282318c0 -1.029686 0.8347168 -1.8644028 1.8643799 -1.8644028z" fill-rule="evenodd"/><path fill="#666666" d="m688.7651 116.48715l6.2855225 0c0.6960449 0 1.3635864 0.2764969 1.8557129 0.7686615c0.4921875 0.4921646 0.76867676 1.1596832 0.76867676 1.8557053l0 5.180908c0 5.340576E-5 -6.1035156E-5 9.918213E-5 -1.2207031E-4 9.918213E-5l-11.53418 -9.918213E-5c-6.1035156E-5 0 -6.1035156E-5 -3.8146973E-5 -6.1035156E-5 -9.1552734E-5l6.1035156E-5 -5.1808167c0 -1.4493942 1.1749878 -2.6243668 2.6243896 -2.6243668z" fill-rule="evenodd"/><path fill="#dc1d1d" d="m705.1946 57.181953l7.689453 0c0.50982666 0 0.99884033 0.20253754 1.359314 0.56306076c0.36053467 0.36052704 0.56311035 0.84949875 0.56311035 1.3593559l0 65.20295c0 5.340576E-5 -6.1035156E-5 9.918213E-5 -1.2207031E-4 9.918213E-5l-11.53418 -9.918213E-5c-6.1035156E-5 0 -1.2207031E-4 -3.8146973E-5 -1.2207031E-4 -9.1552734E-5l1.2207031E-4 -65.20286c0 -1.0617218 0.8607178 -1.9224167 1.9224243 -1.9224167z" fill-rule="evenodd"/><path fill="#666666" d="m721.9715 114.89036l8.401489 0c0.41540527 0 0.8138428 0.16503143 1.107605 0.458786c0.2937622 0.29375458 0.45880127 0.6921768 0.45880127 1.107605l0 7.8317947c0 5.340576E-5 -6.1035156E-5 9.918213E-5 -1.2207031E-4 9.918213E-5l-11.53418 -9.918213E-5c-6.1035156E-5 0 -1.2207031E-4 -3.8146973E-5 -1.2207031E-4 -9.1552734E-5l1.2207031E-4 -7.831703c0 -0.86509705 0.70129395 -1.566391 1.5664062 -1.566391z" fill-rule="evenodd"/><path fill="#dc1d1d" d="m533.8667 105.15553l7.689453 0c0.5098877 0 0.99884033 0.20253754 1.359375 0.56305695c0.36053467 0.36052704 0.5630493 0.84950256 0.5630493 1.3593597l0 17.224396c0 5.340576E-5 0 9.918213E-5 -6.1035156E-5 9.918213E-5l-11.534241 -9.918213E-5c0 0 -6.1035156E-5 -3.8146973E-5 -6.1035156E-5 -9.1552734E-5l6.1035156E-5 -17.224304c0 -1.0617218 0.8607178 -1.9224167 1.9224243 -1.9224167z" fill-rule="evenodd"/><path fill="#666666" d="m482.20493 114.89036l8.214661 0c0.44021606 0 0.86239624 0.17487335 1.1736755 0.48615265c0.3112793 0.31127167 0.48614502 0.73345184 0.48614502 1.1736603l0 7.7383804c0 5.340576E-5 -3.0517578E-5 9.1552734E-5 -9.1552734E-5 9.1552734E-5l-11.53418 -9.1552734E-5c-6.1035156E-5 0 -1.2207031E-4 -4.5776367E-5 -1.2207031E-4 -9.918213E-5l1.2207031E-4 -7.7382812c0 -0.916687 0.743103 -1.6598129 1.65979 -1.6598129z" fill-rule="evenodd"/><path fill="#dc1d1d" d="m499.60004 72.58618l7.689453 0c0.5098572 0 0.99884033 0.20253754 1.3593445 0.5630646c0.36053467 0.3605194 0.56307983 0.84949493 0.56307983 1.3593521l0 49.783546c0 5.340576E-5 -6.1035156E-5 9.918213E-5 -9.1552734E-5 9.918213E-5l-11.53421 -9.918213E-5c-3.0517578E-5 0 -9.1552734E-5 -3.8146973E-5 -9.1552734E-5 -9.1552734E-5l9.1552734E-5 -49.783455c0 -1.0617218 0.8607178 -1.9224167 1.9224243 -1.9224167z" fill-rule="evenodd"/><path fill="#dc1d1d" d="m516.7332 43.771584l7.689453 0c0.50982666 0 0.99884033 0.20254135 1.359314 0.5630646c0.36053467 0.36052322 0.56311035 0.84949875 0.56311035 1.3593559l0 78.61528c0 4.5776367E-5 -6.1035156E-5 9.1552734E-5 -1.2207031E-4 9.1552734E-5l-11.53418 -9.1552734E-5c-6.1035156E-5 0 -1.2207031E-4 -4.5776367E-5 -1.2207031E-4 -9.918213E-5l1.2207031E-4 -78.61519c0 -1.0617256 0.8607178 -1.9224205 1.9224243 -1.9224205z" fill-rule="evenodd"/><path fill="#0061ff" d="m465.33426 111.57075l7.689453 0c0.5098572 0 0.99884033 0.20253754 1.359375 0.5630646c0.36050415 0.3605194 0.5630493 0.84949493 0.5630493 1.3593521l0 10.789032c0 5.340576E-5 -3.0517578E-5 9.918213E-5 -9.1552734E-5 9.918213E-5l-11.53418 -9.918213E-5c-6.1035156E-5 0 -1.2207031E-4 -4.5776367E-5 -1.2207031E-4 -9.918213E-5l1.2207031E-4 -10.788933c0 -1.0617218 0.86068726 -1.9224167 1.9223938 -1.9224167z" fill-rule="evenodd"/><path fill="#dc1d1d" d="m739.46075 98.52072l7.689392 0c0.5098877 0 0.99884033 0.20253754 1.359375 0.5630646c0.36053467 0.3605194 0.5630493 0.84949493 0.5630493 1.3593521l0 23.850922c0 5.340576E-5 0 9.918213E-5 -6.1035156E-5 9.918213E-5l-11.53418 -9.918213E-5c-6.1035156E-5 0 -1.2207031E-4 -4.5776367E-5 -1.2207031E-4 -9.918213E-5l1.2207031E-4 -23.850822c0 -1.0617218 0.86065674 -1.9224167 1.9224243 -1.9224167z" fill-rule="evenodd"/><path fill="#dc1d1d" d="m755.9716 116.483795l8.932495 0c0.3449707 0 0.6759033 0.13706207 0.91986084 0.38102722c0.24395752 0.24397278 0.38104248 0.5748596 0.38104248 0.9198837l0 6.5043716c0 4.5776367E-5 -6.1035156E-5 9.1552734E-5 -1.2207031E-4 9.1552734E-5l-11.53418 -9.1552734E-5c-6.1035156E-5 0 -1.2207031E-4 -4.5776367E-5 -1.2207031E-4 -9.918213E-5l1.2207031E-4 -6.5042725c0 -0.71847534 0.58239746 -1.300911 1.3009033 -1.300911z" fill-rule="evenodd"/><path fill="#0061ff" d="m448.20392 95.234924l7.689453 0c0.5098572 0 0.99884033 0.20253754 1.3593445 0.5630646c0.36053467 0.3605194 0.56307983 0.84949493 0.56307983 1.3593521l0 27.132324c0 5.340576E-5 -6.1035156E-5 9.1552734E-5 -1.2207031E-4 9.1552734E-5l-11.53418 -9.1552734E-5c-6.1035156E-5 0 -9.1552734E-5 -4.5776367E-5 -9.1552734E-5 -9.918213E-5l9.1552734E-5 -27.132225c0 -1.0617218 0.86068726 -1.9224167 1.9224243 -1.9224167z" fill-rule="evenodd"/><path fill="#666666" d="m773.4895 116.47302l8.1651 0c0.44677734 0 0.87524414 0.17749023 1.1911621 0.49341583c0.31591797 0.3159256 0.4934082 0.7444153 0.4934082 1.1912003l0 6.120659c0 5.340576E-5 0 9.918213E-5 -6.1035156E-5 9.918213E-5l-11.53418 -9.918213E-5c-6.1035156E-5 0 -1.2207031E-4 -3.8146973E-5 -1.2207031E-4 -9.1552734E-5l1.2207031E-4 -6.1205673c0 -0.9303894 0.7542114 -1.6846161 1.6845703 -1.6846161z" fill-rule="evenodd"/></g></svg>